<svg id="Layer_1" height="150" width="170" data-name="Layer 1" xmlns="http://www.w3.org/2000/svg" viewBox="0 0 251.14 272.39"><defs><style>.cls-1{fill:#fff;}</style></defs><path class="cls-1" d="M95.2,264.46C65.1,221.23,66.49,158,103.66,114.25,123,91.58,147.31,77,176.46,71.8c37.32-6.68,71.76,1.45,101.43,25.35,54.56,43.94,60,117.68,26.26,167.34-1.38-1.11-2.82-2.14-4.07-3.36-.28-.27-.08-1.31.2-1.83,2.43-4.56,5.27-8.93,7.33-13.65a144.48,144.48,0,0,0,7.05-19.14,119.93,119.93,0,0,0,3.27-18.7,118.44,118.44,0,0,0,.78-18.05,130.41,130.41,0,0,0-3.26-22.4,109.45,109.45,0,0,0-9.07-25.25,117.18,117.18,0,0,0-26.53-35,122.4,122.4,0,0,0-23.2-16.6,114.21,114.21,0,0,0-29.58-11.26,115.62,115.62,0,0,0-12.72-2A137,137,0,0,0,199.1,76c-4.75,0-9.51.75-14.26,1.17a99.72,99.72,0,0,0-24.21,5.41,118.59,118.59,0,0,0-48.69,31.87,124.08,124.08,0,0,0-16.35,22.4,109.38,109.38,0,0,0-11,26.94,144.5,144.5,0,0,0-3.28,19.11,94.73,94.73,0,0,0-.77,16.65c.4,6.68,1.73,13.31,2.6,20,1,7.5,3.58,14.54,6.43,21.46,1.81,4.38,4.18,8.54,6.36,12.76,1,1.94,2.18,3.79,3.27,5.67.49.86.58,1.48-.47,2.13A33.85,33.85,0,0,0,95.2,264.46Z" transform="translate(-74.07 -69.55)"/><path class="cls-1" d="M189.19,86.5c28.62-2.84,56.17,5.14,79.94,24.68,21.18,17.41,34.2,40.14,38.27,67.21,5.07,33.66-4,63.71-26.4,89.41-16.82,19.27-38.15,31.2-63.3,35.14-34.2,5.37-64.82-3.5-90.84-26.5A105.16,105.16,0,0,1,91.77,212c-4.87-32.15,3.32-61.31,24-86.41C134.22,103.17,158.33,90.5,189.19,86.5Zm-3,2c-17.88.39-44.49,11.47-65.7,34.78s-29.89,51-27.33,82.17c4.16,50.87,46.36,94,100.23,96.63,31.94,1.58,59.74-8.64,82.29-31.3,23.53-23.65,33.32-52.86,30.6-85.88C302.3,136.82,261.25,88.2,186.16,88.45Z" transform="translate(-74.07 -69.55)"/><path class="cls-1" d="M265.65,314.5l4.62,7.47a8.49,8.49,0,0,1,2-.76,5.45,5.45,0,0,1,1.69.31c-.17.65-.13,1.61-.55,1.88-2.55,1.69-5.17,3.26-7.83,4.77-.44.25-1.18,0-1.78,0a6.27,6.27,0,0,1,.35-2c.29-.54.94-.89,1.59-1.45l-11.25-18.4a9.51,9.51,0,0,1-2,.81,5,5,0,0,1-1.58-.28c.13-.66,0-1.67.44-1.91a117.11,117.11,0,0,1,11.41-6.5,13,13,0,0,1,6.43-.69c3.3.33,5.12,3.57,4.34,7.28a45.5,45.5,0,0,1-1.54,4.56c3.74,1.22,7.52,2.54,11.37,3.64.83.23,1.9-.44,2.87-.54a6.6,6.6,0,0,1,1.73.26c-.13.66,0,1.66-.42,1.91-3.12,2-6.31,3.76-10.24,2-2.6-1.16-5.32-2.07-8-3.1C267.42,313,267.42,313,265.65,314.5ZM264.13,312c2.66-1.43,5-3.1,5-6.27a4.63,4.63,0,0,0-3.36-4.28c-2.71-1-4.6.71-6.79,2.09C260.77,306.46,262.45,309.21,264.13,312Z" transform="translate(-74.07 -69.55)"/><path class="cls-1" d="M97.2,291.78c3.67-3.37,7.36-6.73,11-10.14,1.21-1.14,2.28-2.43,3.46-3.6a1.67,1.67,0,0,0,.06-2.72c-.38-.4-.31-1.21-.45-1.84.79.08,1.86-.15,2.31.28,3.57,3.48,7.27,6.88,10.47,10.69,4.07,4.85,4.48,11,1.61,15.6a12.92,12.92,0,0,1-17.11,4.81c-3.38-1.85-6.26-4.65-9.27-7.14a50.72,50.72,0,0,1-4.58-4.46,5.88,5.88,0,0,1-.73-1.77,8.88,8.88,0,0,1,2.22-.14c.53.1,1,.65,1.43,1Zm4.66,4.18c2.54,4.19,7.59,7,11.22,6.45,4.17-.65,8.57-5.36,9.57-10.22.75-3.66-2-8.81-6.15-11.49Z" transform="translate(-74.07 -69.55)"/><path class="cls-1" d="M241.32,308.08c1,1.83,2,3.55,3.05,5.33-.93,1.16-1.89,1.55-2.87.15-1.18-1.69-2.84-1.88-4.61-1.47a38.09,38.09,0,0,0-5.34,1.59,2,2,0,0,0-1,1.66c.61,2.57,1.41,5.09,2.21,7.84a45.32,45.32,0,0,0,5.74-1.74c.68-.3.95-1.51,1.46-2.27.35-.54.78-1,1.18-1.53.5.4,1.26.71,1.44,1.22a52,52,0,0,1,1.65,5.73,1.56,1.56,0,0,1-.56,1.4c-.49.18-1.54.08-1.69-.23-1.11-2.25-2.79-1.72-4.55-1.15-1.25.4-2.52.75-4,1.17.91,3.11,1.77,6.06,2.75,9.46,3-1.13,5.83-2.08,8.55-3.22a4.22,4.22,0,0,0,2.38-3.89c.15-1.9,1.13-2.34,3-1.95-.19,2.46-.32,4.83-.59,7.19,0,.35-.64.79-1.06.92-6.12,1.76-12.25,3.5-18.39,5.17-.47.13-1.1-.33-1.66-.51.3-.56.51-1.52.92-1.61,1.88-.45,1.76-1.57,1.35-3-1.63-5.6-3.25-11.21-4.8-16.84-.42-1.52-1-2.31-2.77-1.93-.44.1-1-.54-1.58-.84.36-.44.72-.89,1.1-1.31.07-.09.24-.09.37-.13Z" transform="translate(-74.07 -69.55)"/><path class="cls-1" d="M201.87,317.19c0,1.49,0,2.74,0,4,.13,5.39.3,10.78.4,16.17,0,1.34.48,1.88,1.87,1.93.52,0,1,.8,1.54,1.24-.57.36-1.11,1-1.69,1-2.72.2-5.45.23-8.17.31-.89,0-2,.43-2.17-1s1-1.32,1.85-1.53c.38-.09.78-.15,1.08-.21V317.34a9.91,9.91,0,0,1-2.48-.28,1.69,1.69,0,0,1-.93-1.22c0-.37.62-1.09,1-1.09a139.71,139.71,0,0,1,14.33.11c4.56.42,7.38,3.57,7.43,7.24.06,4-3.08,7.5-7.56,8.23a15.92,15.92,0,0,1-4.52,0c-.53-.07-.95-1-1.42-1.57a5.06,5.06,0,0,1,1.79-.53c3.07.3,5.82-1.57,6.2-4.34.5-3.63-1.44-6.36-4.86-6.72C204.42,317.1,203.29,317.19,201.87,317.19Z" transform="translate(-74.07 -69.55)"/><path class="cls-1" d="M170.19,325.82c-.6,2.6-1.14,5-1.7,7.38-.29,1.22-.26,2.22,1.33,2.51.9.17,1.81.68,1.19,1.74a2.19,2.19,0,0,1-1.89.53c-2.8-.53-5.59-1.15-8.34-1.88-.58-.15-1-.89-1.5-1.36.61-.35,1.31-1.09,1.79-1,1.69.44,2.1-.43,2.4-1.76q2-8.94,4-17.86c.3-1.26-.16-1.9-1.33-2.13-1-.19-1.76-.69-1.26-1.71a2.17,2.17,0,0,1,1.89-.62c3.51.72,7,1.45,10.45,2.46a16.43,16.43,0,0,1,5.33,2.56c4.71,3.62,3.75,10.22-1.7,12.6C177.36,328.86,172.5,328.24,170.19,325.82Zm2.68-11.77c-.85,3.68-1.67,7.26-2.44,10.64,5,1.31,9.59,1.6,9.68-5.34C180.16,316.19,177.13,314.06,172.87,314.05Z" transform="translate(-74.07 -69.55)"/><path class="cls-1" d="M280.82,286.88c0-3.54,2.27-6.52,5.62-8.83s3.33-2.27,6.48.27c.31.25.81.45.89.76a19.43,19.43,0,0,1,.37,2.54,5.42,5.42,0,0,1-1.93,0c-3-1.18-5.86-.68-7.5,1.73a4.5,4.5,0,0,0-.69,3.19,3,3,0,0,0,3.31,2.33,46.61,46.61,0,0,0,5-1.07,77.47,77.47,0,0,1,8.33-1.73c2.85-.29,4.61,1.23,5.32,4a10,10,0,0,1-2.66,9.77,45.52,45.52,0,0,1-6.2,5,2.24,2.24,0,0,1-1.94,0,13.09,13.09,0,0,1-3.38-2.44c-.53-.59-.45-1.74-.64-2.63a5.8,5.8,0,0,1,2.21-.13c3.44,1.24,6.4.57,8.58-2.16,1-1.31,1.75-2.7.67-4.37a3.84,3.84,0,0,0-4.45-1.87c-1.28.31-2.5.89-3.78,1.23a40.46,40.46,0,0,1-7,1.62C283.17,294.42,280.85,292,280.82,286.88Z" transform="translate(-74.07 -69.55)"/><path class="cls-1" d="M142.1,325.72a4.46,4.46,0,0,0,.26-.66c1.08-7.59.78-8.09-6.44-10.8-.39-.15-1-.27-1.27-.07-1.8,1.43-3.53,2.95-5.11,4.31.37,1.72,3.51,1.95,1.42,4.16-2.69-1.37-5.41-2.73-8.09-4.17-.31-.17-.65-1-.51-1.17.26-.4,1-.94,1.28-.81,2.14,1,3.59-.27,5-1.4,5.43-4.19,10.81-8.43,16.24-12.64a5.84,5.84,0,0,1,1.88-1.06c1.31-.38,2.21-.12,2.08,1.61-.56,7.23-1.06,14.47-1.58,21.71-.14,1.84-.55,3.7,1.4,5,.33.23,0,1.36,0,2.3-3.32-1.7-6.22-3.15-9-4.7-.43-.24-.57-1-.84-1.49a7.6,7.6,0,0,1,1.68-.53A5.73,5.73,0,0,1,142.1,325.72Zm1.93-19.1-6.66,5.28,5.82,3.08C143.47,312.15,143.73,309.6,144,306.62Z" transform="translate(-74.07 -69.55)"/><path class="cls-1" d="M146.51,221.66a27.26,27.26,0,0,1-2.6-2.46c-1.7-2.08-1.48-4.21.48-6a4.85,4.85,0,0,0,1-.95,2.56,2.56,0,0,0,.51-1.63c-.1-.32-.95-.57-1.48-.59-3.18-.14-5.49-1.83-7.45-4.12-1-1.17-.84-2.41-.12-3.7,1.73-3.15,3.33-6.37,5.13-9.47s3.92-6.33,6-9.65c-1-1.11-2-2.39-3.2-3.55a1.82,1.82,0,0,1-.26-2.62c1.66-2.65,3.22-5.37,4.86-8a2.68,2.68,0,0,0,.16-2.93c-2.2-4.55-.88-9,3.71-12.91a14.39,14.39,0,0,1-5.91-10.18A22,22,0,0,1,148.52,132h.58l.19,4c4.34-6.83,5.49-10.07,4.87-13.47,2,.37,2.91,1.84,3.21,5.32,1.85-2,3.58-4.13,5.6-6a12.79,12.79,0,0,1,7.71-3.62l-3.55,4.07a64.76,64.76,0,0,1,22.27-6.76c7.58-.89,15.11-.9,22.56,1.09-6.22.33-12.49-.13-18.49,2.07a69.67,69.67,0,0,1,7.6-.69,57.15,57.15,0,0,1,8.66.8,55.52,55.52,0,0,1,20,6.77c10,6,16,14.44,15.87,26.53,0,.25,0,.5.13,1.24a16.67,16.67,0,0,0,.44-9.83c-.65-2.62-1.91-5.08-2.8-7.64a2.79,2.79,0,0,1,0-2.09,5.36,5.36,0,0,1,7.79-1.76,16.16,16.16,0,0,1,6.82,8.62c1.4,3.92,2.46,8,3.71,12.11.94-5.18.12-10.18-1.15-15.23,3.45,3.1,5.26,7.09,6.43,11.74,1.26-8.24-3.12-18.19-10.94-19.58l1.33,1.8-7.69-2.4c3-3,6.8-3.6,10.82-3.55,3.28.05,6.32.78,8.57,3.53l-4.05-.91c4.87,2.29,6,4.09,6,10,0,3.14,1.61,5.39,3.34,8.16-.14-1-.22-1.67-.31-2.31a10.61,10.61,0,0,1,2.86,9.64c-1.1,5.57-5.18,7.67-10.39,8.45.82,5,1.47,9.92-2.2,14.07s-8.69,3.69-13.76,2.89c3.85,6.35,4.29,12.49,1.3,18.76l-.56,0c0-2.78.37-5.64-.11-8.34a27.21,27.21,0,0,0-3.17-7.88c2.5,8.95,3,17.43-3.77,24.72l-.66-.09c.22-1.37.43-2.75.67-4.28-2.52,4.32-5.35,8.33-7.27,12.74-1.33,3-1.42,6.63-2.06,10-6.17-1.39-11.82-6-11.75-16.11-4.37,5.8-6.77,11.77-4.27,19.11-3.09-2.19-3.4-8.48-1.06-17.36l-1.82,2.07-.55-.24c.5-1.72.88-3.49,1.52-5.15.95-2.48,2.16-4.87,3.13-7.35,1.64-4.19.81-7.93-2.63-11.67,1.32,5.08,1.54,9.51-2.29,13.47,0-2.63.3-4.94-.09-7.13a13.51,13.51,0,0,0-2.25-5.26,7.87,7.87,0,0,0-12.17-1.4c-3.81,3.38-5.59,7.87-6.41,12.78a18.92,18.92,0,0,0,1.47,11,24.52,24.52,0,0,1,2.81-11.43c.19,2.11.5,4.22.55,6.33.12,5.31,1.94,10.12,3.93,15a105.2,105.2,0,0,1,3.76,11.29,8.3,8.3,0,0,1-.18,4,13.85,13.85,0,0,1-5.05,7.6l.9-4.61c-5.7,10.72-15.27,16.85-25.22,22.56l-.54-.45c.83-1.43,1.65-2.86,2.48-4.28l-.22-.18c-2.83,1.88-5.64,3.82-8.51,5.65a48,48,0,0,1-15.26,6.68c-5.39,1.21-10.77,1.23-15.84-1.46-.75-.4-1.42-.94-2.21-1.46.92-1.2,1.74-2.23,2.53-3.3,3.23-4.4,3.15-9.36,2.6-14.48-.62-5.71-.61-11.42,1.76-16.81.63-1.45.94-2.69.16-4.1-1.16-2.11-.24-3.77,1.19-5.3C145.74,222.38,146.09,222.07,146.51,221.66Zm1.7-43.26c3.12-1,5.76-1.78,8.37-2.66a8.47,8.47,0,0,1,7.1.51c2.91,1.59,6,2.89,9,4.34.24.11.4.39.89.91a9.13,9.13,0,0,1-1.71,0c-3.2-.79-6.41-1.55-9.57-2.46-2.58-.75-4.35,0-5.66,2.74,4.78-2.24,8.53.4,13,2.08-4.91,2.23-10.07,2.61-14,6.62v-5.22c-2.74-.53-3.08,2.49-5,3.23v-2.42a13.43,13.43,0,0,0-4.94,6.34c-1.17,2.76-2.4,5.49-3.65,8.21-.63,1.37-1.35,2.7-2,4,2.08,2.37,4.35,2,6.68,1,1.82-.76,3.71-1.43,5.5-.14a1.87,1.87,0,0,0,2.81-.26,4.24,4.24,0,0,0,1-2.94c-.15-.76-1.32-1.4-2.16-1.91-.43-.26-1.1-.11-1.76-.15,1.86-2.55,4.83-2.33,6.11.29.75,1.53,1.55,3,2.28,4.59.6,1.29,1.14,2.61,1.7,3.92l-.71.57-2.55-4.08-.71.71L155.76,208c1.64,1.9,3.19,3.67,4.71,5.45,1.38,1.61,2.54,3.48,4.14,4.81,2.36,2,3.33,1.55,4.54-1.16a20,20,0,0,1,2-3.43c1-1.35,2.17-2.54,3.09-3.92,1-1.55,1.85-3.24,3-5.34l1,5.05c8.31-9.79,10.08-19.65,1.36-30.36l3.39.54.2-.35L175.17,172l.26-.36,4.79,1.11c-.81-1-1.5-1.7-2.09-2.5-2.53-3.48-2.09-5.77,1.68-7.77,7.57-4,15.68-5.09,24.11-4.06,2.87.35,5.72.93,9.09,1.48-1.1-.52-1.74-.85-2.4-1.15a41.68,41.68,0,0,0-14.9-3.12c-8.26-.43-16.58,0-24.75-1.69-7.05-1.47-14.38-4.58-15.17-15.43-1,3.86-.59,7.29,1.55,10.1s4.7,4.87,6.79,7l-10.85,3.92,2.61-3.89c-2.63.43-4.61,1.74-5.26,4.25-.51,1.95-.37,4.07-.55,6.59l1.68-1.21.57.28Zm36.06,70.49c3.95-3,7.69-5.74,10.11-9.72a9.36,9.36,0,0,0,1.48-4.83c-.14-4-1.94-7.56-3.78-11.06.19,1.51.72,2.95.91,4.44.3,2.45.82,5,.45,7.38-.5,3.19-2.94,5.24-5.86,7.33v-5.1c-3.84,4.69-8.45,7.71-13,10.83-3.6,2.45-6.93,5.32-10.28,8.12a11.24,11.24,0,0,0-1.83,2.67c2.9-2.14,5.69-4.54,8.79-6.42,4.34-2.62,8.92-4.86,13.31-7.22Zm-24.59-14.38c1.61-1.72,3.47-3,2.9-5.4s-2.06-4.39-4.85-4.86c-1.43-.24-2.86-.5-4.27-.84-2.1-.5-3.27.85-4.2,2.27s.17,2.6,1.21,3.58c.8.75,1.61,1.49,2.59,2.39l-2.34,1,1.93,4.75,6.78-5.67Zm47.46-84.66a35.09,35.09,0,0,0-13.26-3.1c-5.06-.3-10.13-.37-15.17-.87-3.56-.35-7-1.43-8.36-5.34a18.47,18.47,0,0,1-.55-3.29c-2,5.18-.15,9,4.91,10.38a32.55,32.55,0,0,0,7,1.12C190.18,149.14,198.72,147.93,207.14,149.85ZM191,133.61a21.21,21.21,0,0,0,12.12,8.06,91.38,91.38,0,0,0,10.08,1.51c3.28.43,6.56.8,10.29,1.25a7.66,7.66,0,0,0-1.34-.7c-3.19-.89-6.37-1.77-9.58-2.6-3.68-1-7.47-1.61-11.06-2.86S194.4,135.16,191,133.61ZM161.78,146c-.1-10.27,5.71-16.18,14-20.71C165.36,127.54,158.05,136.35,161.78,146Zm94.48,30.46c2.21-.09,4.7-.39,6.25-2.72,1.41-2.11,1-4.34,0-6.76-1.27.92-2.7,1.45-3.27,2.46A65,65,0,0,0,256.26,176.43Zm-36.53-5.2c9.45,2.61,17.41-1.12,20.09-8.65C234.52,168.55,228,171.21,219.73,171.23Z" transform="translate(-74.07 -69.55)"/><path class="cls-1" d="M186.9,287.93c2,.79,4.9-1.23,5.8,1.5.65,2,.22,4.56-.42,6.66-.24.77-2.49.91-3.92,1.07-1,.68.46,2.81-2,3.52C186.52,296.2,186.7,292.18,186.9,287.93Zm4.78,4.33h-.1a4.72,4.72,0,0,0-.06-2,2.38,2.38,0,0,0-1.58-1.12,1.74,1.74,0,0,0-1.43.95,19.29,19.29,0,0,0-.25,4.55,1.93,1.93,0,0,0,1.37,1.29,2.39,2.39,0,0,0,1.7-1.17A8.28,8.28,0,0,0,191.68,292.26Z" transform="translate(-74.07 -69.55)"/><path class="cls-1" d="M200.79,296.9v3.69l-.49.23c-.32-.43-.9-.84-.93-1.28-.21-3.45-.33-6.91-.44-10.37,0-.33.28-.95.45-1a14.6,14.6,0,0,1,4.38,0c1.7.45,1.76,2.13,1.74,3.65,0,.33.06.66.07,1C205.7,296.58,204.59,297.57,200.79,296.9Zm-.14-4.79a6.85,6.85,0,0,0,.16,2.36c.34.64,1.1,1.5,1.62,1.46s1.23-.93,1.54-1.59a4.82,4.82,0,0,0,0-2c0-1.43.28-3.37-1.84-3.28S200.62,291.11,200.65,292.11Z" transform="translate(-74.07 -69.55)"/><path class="cls-1" d="M247.08,279.49a8.62,8.62,0,0,0-2.59-1.37c-.33,0-.81,1.19-1.26,1.81-.29.4-.67.74-1.17,1.3-.73-2.21.17-3.32,1.63-4.06s2.92-.62,3.82.9c1.08,1.81,2,3.72,3,5.57-1.11.71-2,1.37-3,1.93-1.25.68-2.55,1-3.56-.38a2.52,2.52,0,0,1,.51-3.85C245.09,280.76,245.89,280.3,247.08,279.49Zm.16,1.44c-1.38.61-2.93,1-2.27,2.86a2.16,2.16,0,0,0,2,.76C248.68,283.72,248.2,282.4,247.24,280.93Z" transform="translate(-74.07 -69.55)"/><path class="cls-1" d="M179.54,290.46c-.45-1-.62-2-1.21-2.39-.35-.24-1.34.5-2.06.76-.44.17-.9.26-1.56.44.26-2.08,1.45-2.53,3-2.5s3,.67,3.06,2.44a65.55,65.55,0,0,1-.53,6.68c-1.36-.06-2.46-.1-3.56-.16-1.55-.09-2.83-.62-2.85-2.4a2.7,2.7,0,0,1,2.73-2.86C177.32,290.39,178.12,290.46,179.54,290.46Zm-.62,1.14c-1.46.13-3.15-.66-3.39,1.48a2.14,2.14,0,0,0,1.36,1.62C178.82,294.82,179,293.4,178.92,291.6Z" transform="translate(-74.07 -69.55)"/><path class="cls-1" d="M222.21,288.25c-.11-2.43,1-3.37,2.71-3.74a2.67,2.67,0,0,1,3.42,1.95c.6,2,1,3.94,1.58,6-1.33.43-2.53.91-3.78,1.2s-2.53.18-3.09-1.37a2.57,2.57,0,0,1,1.38-3.48,32.53,32.53,0,0,1,3-1.16c-.78-.77-1.34-1.61-2.11-1.91-.3-.12-1.06,1-1.64,1.46C223.33,287.49,222.9,287.76,222.21,288.25Zm5.18.7c-1.45.37-3.14.31-2.89,2.33a2.18,2.18,0,0,0,1.78,1.15C228.29,292.07,227.89,290.59,227.39,289Z" transform="translate(-74.07 -69.55)"/><path class="cls-1" d="M217.52,291.34l-4.68.8c-.05,1.34,0,2.74,1.62,2.64,1-.06,1.94-1,3-1.62.43,1.87-.83,2.38-2,2.68-1.55.4-3.26.35-3.84-1.49a15.14,15.14,0,0,1-.73-5.08c.06-1.73,1.54-2.35,3.12-2.45s2.76.44,3.14,2.12C217.32,289.64,217.38,290.36,217.52,291.34Zm-4.94-.37,3.17-.42c0-1.63-.29-2.86-2-2.57S212.28,289.49,212.58,291Z" transform="translate(-74.07 -69.55)"/><path class="cls-1" d="M292.76,231.62c.07,3.24-2.05,4.83-4.46,4-.88-.31-1.74-.66-2.6-1-2-.86-2.6-2.21-1.84-4.13s2.26-2.65,4.3-1.87a15.57,15.57,0,0,1,3.1,1.33A7.1,7.1,0,0,1,292.76,231.62Zm-2.74,3c.46-.42,1.27-.83,1.44-1.42a2,2,0,0,0-.69-1.81,15.89,15.89,0,0,0-4-1.62,1.94,1.94,0,0,0-1.7.87,2.24,2.24,0,0,0,.44,2A33.41,33.41,0,0,0,290,234.63Z" transform="translate(-74.07 -69.55)"/><path class="cls-1" d="M275.15,257l-2.9,3.74c.93,1,1.93,2.08,3.11.79.66-.72.67-2,1.07-3.41,1.38,1.82.76,3.07-.25,4.18s-2.27,1.73-3.7.74a30.28,30.28,0,0,1-3.25-2.62c-1.19-1.09-1.14-2.69,0-4.11s2.61-1.78,4-.85C273.88,255.86,274.46,256.4,275.15,257Zm-3.81,3.1,2-2.51c-1.09-1.13-2.19-1.93-3.27-.5S270.2,259.26,271.34,260.05Z" transform="translate(-74.07 -69.55)"/><path class="cls-1" d="M297,218.86c-.23,1.23-.42,2.25-.63,3.27-.35,1.71-1.51,2.59-3.17,2.19-2.11-.51-4.19-1.18-6.27-1.78l-.15-.67c.56-.16,1.15-.55,1.65-.45,1.49.31,2.93.82,4.41,1.22,1,.26,2,.54,2.46-.82s-.35-1.94-1.53-2.26c-1.84-.52-3.68-1.08-6.12-1.79.8-.54,1.28-1.12,1.6-1C291.86,217.38,294.45,218.15,297,218.86Z" transform="translate(-74.07 -69.55)"/><path class="cls-1" d="M298.41,212.41l-8.33-1.63c.13-1.24.23-2.32.35-3.4a2.53,2.53,0,0,1,3-2.38c1.77.28,3.53.62,5.27,1,.37.09.64.6.95.91-.4.2-.84.62-1.21.57-1.64-.23-3.25-.74-4.9-.83-.68,0-1.41.72-2.12,1.12.5.64.87,1.63,1.51,1.86,1.54.55,3.23.7,4.83,1.13.44.12.77.67,1.16,1Z" transform="translate(-74.07 -69.55)"/><path class="cls-1" d="M255.73,280.43l-5-7c1.06-.88,2-1.79,3.05-2.52a2.26,2.26,0,0,1,3.34.63c1.28,1.68,2.47,3.44,3.7,5.16l-.31.61c-.51-.2-1.2-.24-1.51-.61-1-1.23-1.77-2.68-2.86-3.83-.49-.51-1.54-.48-2.33-.69-.1.82-.55,1.81-.24,2.42.75,1.47,1.9,2.72,2.77,4.14.24.38,0,1,0,1.56Z" transform="translate(-74.07 -69.55)"/><path class="cls-1" d="M299.24,191.13a13.08,13.08,0,0,0,1.1-1.66,6.28,6.28,0,0,0,.68-2.11c0-.3-.85-1-1.07-.89a4.37,4.37,0,0,0-1.57,1.27c-.37.45-.49,1.09-.82,1.59-.72,1.08-1.67,1.76-3,1.19a2.49,2.49,0,0,1-1.5-3.28c.38-1,1.55-1.7,2.43-2.46.1-.08.58.29.89.46a3.08,3.08,0,0,1-.59.84c-.25.18-.77.08-.93.29A3.27,3.27,0,0,0,294,188a1.4,1.4,0,0,0,.88,1.09,2,2,0,0,0,1.43-.71c.53-.67.69-1.69,1.3-2.21s1.89-1.33,2.63-1.13a3.38,3.38,0,0,1,1.75,2.29C302.46,189.33,301.6,190.53,299.24,191.13Z" transform="translate(-74.07 -69.55)"/><path class="cls-1" d="M268.23,266.9c1.6,1.86.72,3.13-.57,4.21s-2.64,1.24-3.92-.05c-.89-.9-1.76-1.82-2.6-2.76a2.57,2.57,0,0,1,0-3.62,3.12,3.12,0,0,1,3.84-1.27c.42.17.64.83.95,1.26-.5,0-1,.06-1.5.12-.76.11-1.9,0-2.2.42a2.56,2.56,0,0,0,.27,2.23,9.17,9.17,0,0,0,2.31,2.46,2.33,2.33,0,0,0,1.95.37c.5-.22.75-1.09,1-1.72A11.45,11.45,0,0,0,268.23,266.9Z" transform="translate(-74.07 -69.55)"/><path class="cls-1" d="M286.37,241c2.23,1.13,1.76,2.62.92,4s-2,2.12-3.68,1.32c-1-.46-1.9-.95-2.83-1.46-1.93-1-2.4-2.21-1.63-4s2.13-2.48,5-1.49c-.94.43-1.43.64-1.91.88-.74.37-1.48.77-2.22,1.16a7.4,7.4,0,0,0,1.25,2,8.54,8.54,0,0,0,2.82,1.43,2.48,2.48,0,0,0,2.08-.24c.4-.41.26-1.38.29-2.11A10.69,10.69,0,0,0,286.37,241Z" transform="translate(-74.07 -69.55)"/><path class="cls-1" d="M291.93,199.27c-1.64-1.33.22-2.57,1-4l.38,1.95c2.42-.39,5.1,2.1,7.83-.74a5.5,5.5,0,0,1-.47,2.11,2.45,2.45,0,0,1-1.83.8c-1.38,0-2.76-.43-4.14-.51A15.08,15.08,0,0,0,291.93,199.27Z" transform="translate(-74.07 -69.55)"/><path class="cls-1" d="M235.9,290.29l-3.07-8c1.12-.58,2.17-1.17,3.28-1.66.24-.1.64.2,1,.32-.17.3-.27.78-.51.87-1.81.65-1.53,1.89-1,3.24s1,2.47,1.36,3.74c.12.44-.21,1-.33,1.51Z" transform="translate(-74.07 -69.55)"/></svg>